<svg width="1728" height="1117" viewBox="0 0 1728 1117" fill="none" xmlns="http://www.w3.org/2000/svg">
<path opacity="0.0144928" d="M1856.23 1634.65C1865.15 1639.38 1876.08 1637.74 1883.22 1630.66L1883.55 1630.32L2109.89 1396.24C2114.1 1391.88 2116.42 1386.04 2116.35 1379.97L2116.35 1379.97L2110.73 913.909C2110.68 909.291 2109.23 904.8 2106.59 901.019L2106.33 900.655L1866.19 570.549C1861.1 563.559 1852.53 560.01 1843.99 561.362L1563.54 605.781C1555.27 607.091 1548.38 612.787 1545.53 620.614L1545.27 621.378L1418.88 1009.54C1417.45 1013.93 1417.38 1018.64 1418.66 1023.07L1418.79 1023.5L1557.47 1468.49C1559.22 1474.1 1563.04 1478.82 1568.15 1481.69L1568.65 1481.96L1856.23 1634.65Z" stroke="url(#paint0_linear_3205_12)" stroke-width="4"/>
<path opacity="0.0289855" d="M1805.08 1633.16C1813.72 1638.32 1824.69 1637.26 1832.18 1630.59L1832.53 1630.27L2069.45 1410.33C2073.76 1406.32 2076.36 1400.83 2076.75 1394.98L2076.78 1394.41L2095.61 932.976C2095.8 928.348 2094.58 923.773 2092.13 919.85L2091.89 919.473L1870.81 580.496C1866.09 573.265 1857.73 569.284 1849.14 570.186L1568.43 599.69C1560.11 600.564 1552.95 605.879 1549.68 613.532L1549.38 614.28L1403.6 991.815C1401.94 996.136 1401.61 1000.86 1402.67 1005.36L1402.78 1005.8L1517.13 1453.23C1518.59 1458.93 1522.17 1463.84 1527.13 1466.98L1527.61 1467.27L1805.08 1633.16Z" stroke="url(#paint1_linear_3205_12)" stroke-width="4"/>
<path opacity="0.0434783" d="M1754.32 1630.12C1762.66 1635.7 1773.64 1635.22 1781.46 1628.98L1781.83 1628.67L2028.47 1423.32C2033 1419.56 2035.9 1414.2 2036.59 1408.37L2036.65 1407.8L2079.43 952.271C2079.87 947.645 2078.89 943 2076.63 938.945L2076.41 938.555L1874.66 591.788C1870.32 584.336 1862.18 579.934 1853.58 580.385L1573.39 595.069C1565.05 595.506 1557.63 600.427 1553.96 607.884L1553.61 608.613L1389.22 974.569C1387.31 978.807 1386.74 983.519 1387.56 988.084L1387.65 988.526L1477.8 1437.09C1478.96 1442.86 1482.29 1447.96 1487.1 1451.35L1487.56 1451.67L1754.32 1630.12Z" stroke="url(#paint2_linear_3205_12)" stroke-width="4"/>
<path opacity="0.057971" d="M1704.04 1625.56C1712.07 1631.54 1723.02 1631.64 1731.14 1625.84L1731.52 1625.56L1987.02 1435.22C1991.75 1431.69 1994.94 1426.49 1995.95 1420.69L1996.03 1420.13L2062.19 971.736C2062.87 967.126 2062.13 962.42 2060.08 958.243L2059.88 957.841L1877.67 604.37C1873.72 596.717 1865.83 591.908 1857.22 591.908L1578.34 591.908C1570 591.908 1562.34 596.422 1558.28 603.661L1557.9 604.37L1375.68 957.841C1373.55 961.983 1372.72 966.674 1373.31 971.29L1373.37 971.736L1439.53 1420.13C1440.39 1425.97 1443.46 1431.24 1448.09 1434.87L1448.54 1435.22L1704.04 1625.56Z" stroke="url(#paint3_linear_3205_12)" stroke-width="4"/>
<path opacity="0.0724638" d="M1654.31 1619.54C1662.01 1625.9 1672.9 1626.56 1681.3 1621.23L1681.7 1620.97L1945.16 1445.99C1950.08 1442.72 1953.55 1437.69 1954.86 1431.94L1954.98 1431.39L2043.89 991.313C2044.82 986.73 2044.32 981.977 2042.48 977.687L2042.3 977.274L1879.77 618.184C1876.22 610.351 1868.6 605.149 1860.02 604.699L1583.2 590.192C1574.88 589.756 1567 593.85 1562.57 600.852L1562.15 601.538L1362.97 941.672C1360.61 945.707 1359.54 950.362 1359.89 955.017L1359.92 955.468L1402.35 1402.42C1402.9 1408.3 1405.7 1413.74 1410.15 1417.6L1410.58 1417.97L1654.31 1619.54Z" stroke="url(#paint4_linear_3205_12)" stroke-width="4"/>
<path opacity="0.0869565" d="M1605.22 1612.08C1612.56 1618.8 1623.37 1620.03 1632.02 1615.17L1632.43 1614.94L1902.95 1455.63C1908.05 1452.63 1911.79 1447.78 1913.4 1442.1L1913.55 1441.55L2024.53 1010.94C2025.7 1006.4 2025.45 1001.61 2023.82 997.22L2023.66 996.796L1880.9 633.169C1877.76 625.177 1870.43 619.597 1861.89 618.7L1587.9 589.901C1579.62 589.032 1571.55 592.697 1566.75 599.441L1566.3 600.103L1351.05 926.102C1348.47 930.016 1347.14 934.624 1347.25 939.306L1347.27 939.759L1366.29 1384.03C1366.54 1389.94 1369.06 1395.52 1373.31 1399.61L1373.73 1400.01L1605.22 1612.08Z" stroke="url(#paint5_linear_3205_12)" stroke-width="4"/>
<path opacity="0.101449" d="M1556.83 1603.24C1563.79 1610.31 1574.49 1612.1 1583.36 1607.73L1583.78 1607.51L1860.46 1464.13C1865.72 1461.4 1869.72 1456.75 1871.63 1451.16L1871.81 1450.62L2004.1 1030.56C2005.52 1026.08 2005.52 1021.27 2004.11 1016.78L2003.97 1016.35L1881.01 649.26C1878.29 641.13 1871.27 635.19 1862.8 633.848L1592.35 591.013C1584.14 589.713 1575.9 592.94 1570.75 599.407L1570.26 600.043L1339.88 911.168C1337.08 914.95 1335.51 919.496 1335.38 924.192L1335.37 924.646L1331.38 1365.02C1331.32 1370.95 1333.56 1376.66 1337.6 1380.97L1338 1381.38L1556.83 1603.24Z" stroke="url(#paint6_linear_3205_12)" stroke-width="4"/>
<path opacity="0.115942" d="M1509.2 1593.08C1515.79 1600.47 1526.34 1602.81 1535.41 1598.93L1535.84 1598.74L1817.74 1471.48C1823.15 1469.04 1827.4 1464.61 1829.61 1459.12L1829.82 1458.58L1982.63 1050.12C1984.29 1045.7 1984.54 1040.88 1983.36 1036.32L1983.24 1035.88L1880.04 666.391C1877.74 658.145 1871.05 651.86 1862.67 650.08L1596.48 593.499C1588.37 591.775 1579.98 594.554 1574.5 600.727L1573.98 601.335L1329.42 896.903C1326.41 900.54 1324.6 905.012 1324.22 909.711L1324.18 910.166L1297.65 1345.46C1297.29 1351.39 1299.23 1357.22 1303.06 1361.73L1303.44 1362.17L1509.2 1593.08Z" stroke="url(#paint7_linear_3205_12)" stroke-width="4"/>
<path opacity="0.130435" d="M1462.42 1581.65C1468.6 1589.33 1478.99 1592.21 1488.22 1588.84L1488.66 1588.68L1774.87 1477.7C1780.41 1475.55 1784.9 1471.34 1787.4 1465.96L1787.64 1465.44L1960.12 1069.56C1962.01 1065.22 1962.51 1060.4 1961.57 1055.77L1961.47 1055.32L1877.96 684.492C1876.08 676.152 1869.73 669.542 1861.47 667.329L1600.23 597.33C1592.23 595.187 1583.72 597.513 1577.93 603.373L1577.37 603.951L1319.63 883.341C1316.42 886.822 1314.36 891.207 1313.74 895.895L1313.68 896.35L1265.12 1325.43C1264.45 1331.34 1266.1 1337.27 1269.7 1341.98L1270.05 1342.43L1462.42 1581.65Z" stroke="url(#paint8_linear_3205_12)" stroke-width="4"/>
<path opacity="0.144928" d="M1416.54 1569C1422.31 1576.96 1432.49 1580.37 1441.86 1577.51L1442.31 1577.37L1731.89 1482.76C1737.55 1480.91 1742.27 1476.94 1745.06 1471.7L1745.32 1471.19L1936.58 1088.82C1938.71 1084.57 1939.46 1079.77 1938.75 1075.08L1938.68 1074.63L1874.7 703.493C1873.25 695.081 1867.26 688.163 1859.14 685.526L1603.52 602.471C1595.66 599.915 1587.05 601.783 1580.96 607.315L1580.38 607.862L1310.47 870.511C1307.06 873.826 1304.77 878.111 1303.9 882.776L1303.82 883.229L1233.81 1304.99C1232.83 1310.86 1234.17 1316.88 1237.53 1321.77L1237.87 1322.24L1416.54 1569Z" stroke="url(#paint9_linear_3205_12)" stroke-width="4"/>
<path opacity="0.15942" d="M1371.61 1555.2C1376.95 1563.42 1386.91 1567.34 1396.39 1565L1396.84 1564.88L1688.89 1486.7C1694.65 1485.15 1699.58 1481.43 1702.64 1476.34L1702.93 1475.84L1912.03 1107.86C1914.39 1103.71 1915.4 1098.94 1914.92 1094.2L1914.87 1093.74L1870.24 723.32C1869.22 714.858 1863.6 707.653 1855.65 704.599L1606.3 608.882C1598.59 605.923 1589.91 607.329 1583.53 612.517L1582.92 613.031L1301.89 858.442C1298.3 861.578 1295.78 865.752 1294.66 870.38L1294.56 870.829L1203.72 1284.21C1202.44 1290.03 1203.47 1296.12 1206.59 1301.19L1206.9 1301.68L1371.61 1555.2Z" stroke="url(#paint10_linear_3205_12)" stroke-width="4"/>
<path opacity="0.173913" d="M1327.69 1540.31C1332.6 1548.76 1342.3 1553.18 1351.87 1551.36L1352.32 1551.27L1645.9 1489.5C1651.75 1488.27 1656.88 1484.81 1660.22 1479.88L1660.53 1479.4L1886.5 1126.6C1889.08 1122.57 1890.34 1117.84 1890.1 1113.07L1890.07 1112.61L1864.53 743.898C1863.95 735.408 1858.72 727.937 1850.94 724.475L1608.48 616.523C1600.95 613.17 1592.22 614.111 1585.59 618.941L1584.95 619.42L1293.86 847.156C1290.09 850.104 1287.34 854.152 1285.98 858.733L1285.85 859.178L1174.87 1263.17C1173.29 1268.93 1174.01 1275.07 1176.87 1280.3L1177.16 1280.8L1327.69 1540.31Z" stroke="url(#paint11_linear_3205_12)" stroke-width="4"/>
<path opacity="0.188406" d="M1284.84 1524.4C1289.29 1533.06 1298.72 1537.96 1308.34 1536.67L1308.8 1536.61L1603 1491.19C1608.92 1490.27 1614.23 1487.09 1617.83 1482.33L1618.18 1481.87L1859.99 1145.01C1862.79 1141.11 1864.3 1136.43 1864.31 1131.64L1864.3 1131.18L1857.56 765.15C1857.4 756.655 1852.57 748.938 1845 745.081L1610.02 625.35C1602.69 621.613 1593.93 622.089 1587.06 626.547L1586.4 626.99L1286.32 836.677C1282.38 839.428 1279.41 843.339 1277.81 847.859L1277.66 848.298L1147.27 1241.93C1145.39 1247.61 1145.8 1253.79 1148.39 1259.17L1148.65 1259.68L1284.84 1524.4Z" stroke="url(#paint12_linear_3205_12)" stroke-width="4"/>
<path opacity="0.202899" d="M1243.09 1507.54C1247.09 1516.38 1256.21 1521.75 1265.86 1520.99L1266.32 1520.95L1560.25 1491.78C1566.21 1491.18 1571.7 1488.29 1575.56 1483.72L1575.92 1483.27L1832.55 1163.04C1835.56 1159.27 1837.31 1154.66 1837.57 1149.86L1837.59 1149.39L1849.29 787C1849.56 778.522 1845.14 770.581 1837.8 766.34L1610.86 635.314C1603.74 631.206 1594.99 631.215 1587.9 635.289L1587.22 635.696L1279.23 827.024C1275.13 829.567 1271.94 833.33 1270.11 837.777L1269.93 838.21L1120.91 1220.57C1118.73 1226.16 1118.83 1232.36 1121.15 1237.87L1121.38 1238.4L1243.09 1507.54Z" stroke="url(#paint13_linear_3205_12)" stroke-width="4"/>
<path opacity="0.217391" d="M1202.49 1489.79C1206.02 1498.8 1214.82 1504.62 1224.46 1504.38L1224.92 1504.36L1517.69 1491.29C1523.69 1491.02 1529.33 1488.42 1533.43 1484.05L1533.82 1483.62L1804.19 1180.62C1807.41 1177.01 1809.4 1172.48 1809.9 1167.68L1809.94 1167.21L1839.69 809.37C1840.4 800.931 1836.4 792.788 1829.3 788.176L1610.93 646.366C1604.05 641.898 1595.33 641.443 1588.04 645.122L1587.34 645.491L1272.54 818.216C1268.29 820.543 1264.9 824.145 1262.83 828.507L1262.63 828.931L1095.79 1199.16C1093.32 1204.63 1093.1 1210.85 1095.15 1216.47L1095.35 1217.02L1202.49 1489.79Z" stroke="url(#paint14_linear_3205_12)" stroke-width="4"/>
<path opacity="0.231884" d="M1163.07 1471.24C1166.14 1480.39 1174.58 1486.63 1184.19 1486.91L1184.65 1486.92L1475.39 1489.73C1481.4 1489.79 1487.19 1487.49 1491.52 1483.34L1491.94 1482.94L1774.94 1197.72C1778.36 1194.28 1780.6 1189.84 1781.34 1185.05L1781.41 1184.59L1828.77 832.18C1829.89 823.801 1826.33 815.48 1819.49 810.51L1610.2 658.453C1603.57 653.639 1594.91 652.723 1587.44 655.998L1586.72 656.327L1266.2 810.266C1261.82 812.368 1258.23 815.798 1255.92 820.062L1255.7 820.477L1071.91 1177.77C1069.15 1183.11 1068.61 1189.32 1070.38 1195.05L1070.55 1195.61L1163.07 1471.24Z" stroke="url(#paint15_linear_3205_12)" stroke-width="4"/>
<path opacity="0.246377" d="M1124.87 1451.95C1127.47 1461.21 1135.54 1467.86 1145.09 1468.66L1145.55 1468.7L1433.39 1487.15C1439.4 1487.53 1445.32 1485.54 1449.87 1481.62L1450.31 1481.24L1744.84 1214.3C1748.45 1211.03 1750.93 1206.7 1751.92 1201.93L1752.01 1201.47L1816.49 855.352C1818.04 847.055 1814.91 838.578 1808.35 833.266L1608.61 671.518C1602.26 666.373 1593.67 664.999 1586.05 667.862L1585.32 668.152L1260.17 803.186C1255.67 805.055 1251.88 808.303 1249.35 812.457L1249.11 812.861L1049.24 1156.46C1046.21 1161.67 1045.35 1167.85 1046.83 1173.67L1046.98 1174.24L1124.87 1451.95Z" stroke="url(#paint16_linear_3205_12)" stroke-width="4"/>
<path opacity="0.26087" d="M1087.92 1432.01C1090.04 1441.35 1097.72 1448.39 1107.18 1449.7L1107.63 1449.76L1391.76 1483.55C1397.75 1484.27 1403.78 1482.6 1408.54 1478.91L1409 1478.55L1713.93 1230.3C1717.72 1227.22 1720.43 1223 1721.66 1218.28L1721.78 1217.82L1802.86 878.807C1804.82 870.613 1802.14 862.003 1795.88 856.365L1606.12 685.507C1600.06 680.045 1591.57 678.22 1583.82 680.662L1583.07 680.912L1254.39 796.984C1249.78 798.613 1245.81 801.669 1243.06 805.701L1242.8 806.095L1027.78 1135.31C1024.48 1140.36 1023.31 1146.5 1024.49 1152.4L1024.61 1152.97L1087.92 1432.01Z" stroke="url(#paint17_linear_3205_12)" stroke-width="4"/>
<path opacity="0.275362" d="M1052.23 1411.48C1053.88 1420.89 1061.15 1428.28 1070.49 1430.1L1070.94 1430.19L1350.53 1478.98C1356.49 1480.02 1362.61 1478.67 1367.57 1475.24L1368.04 1474.9L1682.24 1245.7C1686.2 1242.8 1689.14 1238.72 1690.61 1234.04L1690.75 1233.59L1787.87 902.466C1790.24 894.395 1788.01 885.676 1782.06 879.729L1602.69 700.358C1596.93 694.596 1588.57 692.327 1580.71 694.342L1579.95 694.55L1248.83 791.669C1244.12 793.051 1239.98 795.903 1237.01 799.803L1236.72 800.184L1007.51 1114.38C1003.95 1119.26 1002.46 1125.34 1003.35 1131.31L1003.44 1131.89L1052.23 1411.48Z" stroke="url(#paint18_linear_3205_12)" stroke-width="4"/>
<path opacity="0.289855" d="M1017.84 1390.45C1019 1399.89 1025.85 1407.62 1035.05 1409.94L1035.49 1410.05L1309.77 1473.46C1315.67 1474.83 1321.86 1473.81 1327.01 1470.64L1327.5 1470.33L1649.8 1260.44C1653.93 1257.75 1657.09 1253.8 1658.8 1249.19L1658.97 1248.74L1771.52 926.25C1774.29 918.324 1772.52 909.52 1766.9 903.281L1598.28 716.011C1592.84 709.967 1584.63 707.261 1576.69 708.845L1575.92 709.012L1243.43 787.243C1238.63 788.372 1234.32 791.011 1231.14 794.767L1230.84 795.134L988.413 1093.73C984.596 1098.43 982.791 1104.44 983.377 1110.46L983.441 1111.04L1017.84 1390.45Z" stroke="url(#paint19_linear_3205_12)" stroke-width="4"/>
<path opacity="0.304348" d="M984.747 1368.98C985.431 1378.44 991.84 1386.49 1000.86 1389.29L1001.29 1389.42L1269.51 1467.03C1275.33 1468.72 1281.58 1468.03 1286.9 1465.13L1287.41 1464.85L1616.67 1274.49C1620.95 1272.02 1624.32 1268.23 1626.28 1263.69L1626.46 1263.25L1753.83 950.082C1756.98 942.32 1755.67 933.455 1750.4 926.943L1592.86 732.403C1587.75 726.095 1579.71 722.962 1571.71 724.112L1570.94 724.236L1238.14 783.708C1233.27 784.578 1228.81 786.997 1225.43 790.597L1225.1 790.949L970.451 1073.44C966.389 1077.94 964.277 1083.87 964.56 1089.91L964.595 1090.5L984.747 1368.98Z" stroke="url(#paint20_linear_3205_12)" stroke-width="4"/>
<path opacity="0.318841" d="M952.966 1347.17C953.174 1356.61 959.128 1364.94 967.951 1368.22L968.374 1368.37L1229.79 1459.72C1235.53 1461.73 1241.82 1461.37 1247.29 1458.76L1247.81 1458.5L1582.88 1287.83C1587.31 1285.57 1590.88 1281.95 1593.07 1277.5L1593.28 1277.06L1734.79 973.886C1738.33 966.307 1737.47 957.405 1732.56 950.638L1586.4 749.473C1581.64 742.918 1573.79 739.367 1565.76 740.081L1564.98 740.164L1232.91 781.062C1227.98 781.669 1223.38 783.858 1219.8 787.292L1219.46 787.628L953.601 1053.55C949.303 1057.85 946.887 1063.67 946.866 1069.73L946.872 1070.32L952.966 1347.17Z" stroke="url(#paint21_linear_3205_12)" stroke-width="4"/>
<path opacity="0.333333" d="M922.505 1325.07C922.24 1334.48 927.725 1343.08 936.324 1346.82L936.736 1346.99L1190.66 1451.57C1196.29 1453.89 1202.6 1453.88 1208.21 1451.56L1208.76 1451.33L1548.47 1300.42C1553.03 1298.39 1556.81 1294.94 1559.23 1290.58L1559.46 1290.16L1714.43 997.585C1718.33 990.208 1717.94 981.294 1713.39 974.293L1578.87 767.154C1574.47 760.372 1566.84 756.417 1558.8 756.694L1558.02 756.734L1227.71 779.302C1222.73 779.642 1218 781.592 1214.23 784.85L1213.87 785.169L937.829 1034.14C933.307 1038.21 930.594 1043.91 930.267 1049.98L930.243 1050.57L922.505 1325.07Z" stroke="url(#paint22_linear_3205_12)" stroke-width="4"/>
<path opacity="0.347826" d="M893.362 1302.78C892.629 1312.13 897.635 1320.96 905.986 1325.15L906.386 1325.34L1152.15 1442.63C1157.66 1445.26 1163.98 1445.59 1169.72 1443.56L1170.27 1443.36L1513.5 1312.22C1518.18 1310.43 1522.15 1307.17 1524.8 1302.92L1525.05 1302.51L1692.76 1021.11C1697.02 1013.95 1697.09 1005.05 1692.92 997.832L1570.26 785.381C1566.23 778.392 1558.84 774.046 1550.8 773.886L1550.03 773.883L1222.47 778.421C1217.46 778.49 1212.61 780.194 1208.66 783.265L1208.28 783.566L923.101 1015.25C918.366 1019.09 915.359 1024.66 914.727 1030.71L914.674 1031.3L893.362 1302.78Z" stroke="url(#paint23_linear_3205_12)" stroke-width="4"/>
<path opacity="0.362319" d="M865.536 1280.37C864.341 1289.63 868.857 1298.67 876.935 1303.29L877.323 1303.5L1114.31 1432.93C1119.68 1435.86 1125.98 1436.53 1131.83 1434.81L1132.39 1434.63L1478.01 1323.22C1482.8 1321.68 1486.95 1318.61 1489.82 1314.49L1490.1 1314.08L1669.81 1044.38C1674.42 1037.46 1674.93 1028.59 1671.16 1021.18L1560.54 804.089C1556.89 796.912 1549.75 792.189 1541.76 791.594L1540.98 791.55L1217.16 778.41C1212.13 778.206 1207.18 779.657 1203.06 782.533L1202.66 782.816L909.377 996.941C904.441 1000.55 901.148 1005.96 900.212 1011.99L900.13 1012.57L865.536 1280.37Z" stroke="url(#paint24_linear_3205_12)" stroke-width="4"/>
<path opacity="0.376812" d="M839.019 1257.91C837.368 1267.06 841.386 1276.29 849.17 1281.31L849.543 1281.55L1077.16 1422.51C1082.37 1425.74 1088.64 1426.75 1094.58 1425.34L1095.16 1425.2L1442.05 1333.4C1446.93 1332.1 1451.25 1329.24 1454.34 1325.25L1454.64 1324.86L1645.6 1067.33C1650.54 1060.66 1651.51 1051.86 1648.13 1044.28L1549.71 823.212C1546.44 815.869 1539.58 810.783 1531.65 809.757L1530.88 809.67L1211.72 779.258C1206.69 778.779 1201.65 779.971 1197.37 782.641L1196.95 782.904L896.617 979.268C891.491 982.619 887.921 987.871 886.682 993.851L886.569 994.433L839.019 1257.91Z" stroke="url(#paint25_linear_3205_12)" stroke-width="4"/>
<path opacity="0.391304" d="M813.799 1235.48C811.701 1244.49 815.214 1253.87 822.682 1259.3L823.04 1259.55L1040.74 1411.43C1045.77 1414.94 1051.99 1416.3 1058.01 1415.2L1058.6 1415.09L1405.66 1342.72C1410.63 1341.68 1415.11 1339.03 1418.42 1335.19L1418.73 1334.81L1620.16 1089.89C1625.42 1083.5 1626.84 1074.77 1623.87 1067.04L1537.75 842.682C1534.87 835.194 1528.31 829.762 1520.46 828.309L1519.7 828.181L1206.12 780.952C1201.1 780.196 1195.98 781.122 1191.55 783.579L1191.12 783.822L884.777 962.275C879.475 965.364 875.634 970.439 874.094 976.362L873.952 976.937L873.952 976.938L813.799 1235.48Z" stroke="url(#paint26_linear_3205_12)" stroke-width="4"/>
<path opacity="0.405797" d="M789.859 1213.14C787.323 1222.01 790.327 1231.51 797.458 1237.31L797.8 1237.58L1005.07 1399.73C1009.91 1403.52 1016.06 1405.21 1022.14 1404.43L1022.73 1404.35L1368.9 1351.18C1373.94 1350.41 1378.58 1347.98 1382.08 1344.29L1382.42 1343.93L1593.53 1112C1599.09 1105.89 1600.95 1097.27 1598.4 1089.41L1524.65 862.435C1522.18 854.823 1515.93 849.063 1508.19 847.188L1507.43 847.019L1200.32 783.475C1195.32 782.442 1190.13 783.099 1185.56 785.333L1185.12 785.555L873.809 946.013C868.344 948.83 864.242 953.713 862.404 959.562L862.234 960.132L789.859 1213.14Z" stroke="url(#paint27_linear_3205_12)" stroke-width="4"/>
<path opacity="0.42029" d="M767.18 1190.98C764.218 1199.67 766.708 1209.27 773.482 1215.42L773.808 1215.71L970.174 1387.46C974.811 1391.51 980.874 1393.53 987.001 1393.08L987.594 1393.03L1331.82 1358.76C1336.92 1358.25 1341.69 1356.06 1345.4 1352.54L1345.75 1352.19L1565.75 1133.59C1571.6 1127.78 1573.89 1119.29 1571.76 1111.33L1510.42 882.404C1508.35 874.691 1502.44 868.62 1494.82 866.332L1494.08 866.122L1194.26 786.811C1189.31 785.501 1184.06 785.883 1179.36 787.887L1178.91 788.086L863.665 930.522C858.052 933.059 853.698 937.737 851.566 943.499L851.366 944.06L767.18 1190.98Z" stroke="url(#paint28_linear_3205_12)" stroke-width="4"/>
<path opacity="0.434783" d="M745.739 1169.05C742.361 1177.54 744.336 1187.21 750.735 1193.7L751.044 1194.01L936.078 1374.65C940.495 1378.96 946.452 1381.31 952.607 1381.19L953.204 1381.17L1294.46 1365.45C1299.6 1365.22 1304.51 1363.26 1308.41 1359.91L1308.78 1359.58L1536.86 1154.61C1542.97 1149.11 1545.69 1140.76 1543.98 1132.72L1495.05 902.525C1493.39 894.732 1487.83 888.37 1480.37 885.675L1479.64 885.426L1187.91 790.938C1183.01 789.352 1177.73 789.456 1172.91 791.223L1172.44 791.399L854.296 915.844C848.548 918.092 843.952 922.553 841.53 928.212L841.301 928.764L745.739 1169.05Z" stroke="url(#paint29_linear_3205_12)" stroke-width="4"/>
<path opacity="0.449275" d="M725.507 1147.43C721.727 1155.71 723.186 1165.42 729.194 1172.22L729.483 1172.54L902.801 1361.37C906.983 1365.93 912.817 1368.6 918.982 1368.8L919.579 1368.82L1256.89 1371.24C1262.06 1371.28 1267.09 1369.58 1271.16 1366.41L1271.55 1366.1L1506.89 1174.99C1513.26 1169.81 1516.39 1161.64 1515.11 1153.53L1478.55 922.732C1477.31 914.881 1472.11 908.248 1464.82 905.158L1464.11 904.869L1181.23 795.833C1176.41 793.973 1171.1 793.795 1166.17 795.318L1165.69 795.472L845.645 902.014C839.777 903.968 834.951 908.199 832.243 913.742L831.989 914.282L725.507 1147.43Z" stroke="url(#paint30_linear_3205_12)" stroke-width="4"/>
<path opacity="0.463768" d="M706.454 1126.18C702.285 1134.22 703.228 1143.95 708.83 1151.03L709.101 1151.37L870.356 1347.66C874.29 1352.45 879.984 1355.44 886.142 1355.97L886.74 1356.02L1219.14 1376.13C1224.33 1376.44 1229.46 1374.99 1233.71 1372.02L1234.12 1371.73L1475.91 1194.67C1482.51 1189.84 1486.05 1181.85 1485.19 1173.71L1460.94 942.963C1460.11 935.076 1455.28 928.191 1448.19 924.716L1447.5 924.391L1174.18 801.474C1169.45 799.343 1164.13 798.881 1159.1 800.155L1158.62 800.283L837.661 889.068C831.688 890.72 826.643 894.71 823.657 900.122L823.374 900.65L706.454 1126.18Z" stroke="url(#paint31_linear_3205_12)" stroke-width="4"/>
<path opacity="0.478261" d="M688.545 1105.36C684.002 1113.15 684.433 1122.86 689.614 1130.21L689.865 1130.56L838.761 1333.57C842.433 1338.58 847.969 1341.88 854.102 1342.74L854.697 1342.82L1181.28 1380.11C1186.47 1380.7 1191.69 1379.51 1196.11 1376.74L1196.53 1376.47L1443.95 1213.62C1450.77 1209.13 1454.7 1201.36 1454.27 1193.2L1442.22 963.155C1441.8 955.255 1437.36 948.14 1430.49 944.292L1429.81 943.93L1166.73 807.834C1162.1 805.435 1156.79 804.688 1151.67 805.705L1151.18 805.809L830.287 877.035C824.224 878.381 818.972 882.118 815.713 887.385L815.404 887.899L688.545 1105.36Z" stroke="url(#paint32_linear_3205_12)" stroke-width="4"/>
<path opacity="0.492754" d="M671.741 1085.04C666.84 1092.56 666.764 1102.22 671.512 1109.81L671.741 1110.17L808.022 1319.15C811.421 1324.36 816.782 1327.97 822.873 1329.16L823.465 1329.26L1143.35 1383.18C1148.52 1384.05 1153.83 1383.13 1158.4 1380.57L1158.84 1380.32L1411.07 1231.78C1418.09 1227.64 1422.4 1220.11 1422.4 1211.96L1422.4 983.247C1422.4 975.356 1418.36 968.034 1411.72 963.826L1411.07 963.429L1158.84 814.886C1154.32 812.224 1149.03 811.189 1143.85 811.945L1143.35 812.025L823.465 865.943C817.328 866.977 811.881 870.451 808.357 875.56L808.022 876.059L671.741 1085.04Z" stroke="url(#paint33_linear_3205_12)" stroke-width="4"/>
<path opacity="0.507246" d="M656.004 1065.27C650.76 1072.49 650.182 1082.09 654.486 1089.89L654.694 1090.26L778.149 1304.45C781.263 1309.85 786.433 1313.75 792.463 1315.27L793.05 1315.41L1105.4 1385.35C1110.55 1386.5 1115.93 1385.85 1120.64 1383.51L1121.1 1383.28L1377.33 1249.1C1384.53 1245.33 1389.2 1238.04 1389.63 1229.93L1401.51 1003.18C1401.93 995.32 1398.29 987.814 1391.91 983.26L1391.29 982.829L1150.48 822.6C1146.09 819.679 1140.83 818.358 1135.59 818.849L1135.09 818.903L817.136 855.813C810.942 856.532 805.314 859.734 801.532 864.67L801.171 865.153L656.004 1065.27Z" stroke="url(#paint34_linear_3205_12)" stroke-width="4"/>
<path opacity="0.521739" d="M641.288 1046.1C635.72 1053.02 634.645 1062.52 638.496 1070.5L638.683 1070.88L749.146 1289.52C751.965 1295.1 756.926 1299.28 762.88 1301.12L763.459 1301.29L1067.49 1386.62C1072.59 1388.05 1078.03 1387.68 1082.88 1385.57L1083.35 1385.36L1342.78 1265.55C1350.14 1262.15 1355.17 1255.13 1356.01 1247.07L1379.58 1022.9C1380.4 1015.09 1377.18 1007.42 1371.07 1002.54L1370.48 1002.07L1141.62 830.945C1137.37 827.771 1132.16 826.164 1126.88 826.386L1126.37 826.414L811.242 846.666C805.006 847.067 799.21 849.987 795.178 854.74L794.794 855.205L641.288 1046.1Z" stroke="url(#paint35_linear_3205_12)" stroke-width="4"/>
<path opacity="0.536232" d="M627.547 1027.58C621.671 1034.19 620.111 1043.57 623.5 1051.71L623.665 1052.09L721.015 1274.41C723.527 1280.14 728.266 1284.6 734.125 1286.76L734.696 1286.96L1029.66 1387C1034.7 1388.71 1040.18 1388.61 1045.16 1386.74L1045.64 1386.55L1307.48 1281.09C1314.98 1278.07 1320.34 1271.33 1321.61 1263.35L1356.61 1042.34C1357.84 1034.61 1355.04 1026.8 1349.23 1021.6L1348.66 1021.11L1132.22 839.891C1128.13 836.47 1122.99 834.578 1117.68 834.527L1117.16 834.528L805.723 838.52C799.46 838.601 793.511 841.23 789.239 845.786L788.83 846.233L627.547 1027.58Z" stroke="url(#paint36_linear_3205_12)" stroke-width="4"/>
<path opacity="0.550725" d="M614.732 1009.77C608.568 1016.05 606.53 1025.28 609.451 1033.55L609.595 1033.94L693.756 1259.16C695.953 1265.04 700.453 1269.76 706.201 1272.24L706.762 1272.47L991.96 1386.5C996.934 1388.49 1002.44 1388.68 1007.53 1387.04L1008.02 1386.88L1271.5 1295.68C1279.12 1293.04 1284.8 1286.61 1286.47 1278.72L1332.65 1061.46C1334.28 1053.82 1331.91 1045.9 1326.41 1040.41L1325.87 1039.88L1122.27 849.402C1118.35 845.742 1113.29 843.566 1107.96 843.24L1107.44 843.214L800.517 831.386C794.245 831.145 788.156 833.476 783.654 837.824L783.223 838.251L614.732 1009.77Z" stroke="url(#paint37_linear_3205_12)" stroke-width="4"/>
<path opacity="0.565217" d="M602.791 992.706C596.46 998.543 593.936 1007.41 596.191 1015.67L596.425 1016.47L667.364 1243.84C669.237 1249.84 673.485 1254.81 679.105 1257.59L679.653 1257.86L954.442 1385.13C959.33 1387.4 964.851 1387.87 970.044 1386.49L970.546 1386.35L1234.89 1309.29C1242.61 1307.04 1248.59 1300.93 1250.67 1293.16L1307.73 1080.2C1309.75 1072.68 1307.82 1064.67 1302.64 1058.9L1302.13 1058.35L1111.73 859.444C1108 855.553 1103.04 853.096 1097.69 852.493L1097.18 852.441L795.563 825.273C789.298 824.709 783.085 826.735 778.362 830.863L777.91 831.27L602.791 992.706Z" stroke="url(#paint38_linear_3205_12)" stroke-width="4"/>
<path opacity="0.57971" d="M591.673 976.43C585.096 981.917 582.13 990.585 583.918 998.915L584.105 999.72L641.833 1228.47C643.376 1234.58 647.357 1239.79 652.832 1242.88L653.366 1243.17L917.151 1382.92C921.937 1385.46 927.459 1386.22 932.743 1385.09L933.254 1384.97L1197.71 1321.9C1205.51 1320.04 1211.78 1314.26 1214.25 1306.64L1281.87 1098.52C1284.27 1091.14 1282.78 1083.06 1277.95 1077.03L1277.47 1076.45L1100.58 869.981C1097.06 865.868 1092.2 863.135 1086.87 862.253L1086.35 862.173L790.801 820.187C784.56 819.301 778.237 821.016 773.305 824.914L772.832 825.298L591.673 976.43Z" stroke="url(#paint39_linear_3205_12)" stroke-width="4"/>
<path opacity="0.594203" d="M581.319 960.981C574.518 966.107 571.124 974.556 572.443 982.925L572.585 983.735L617.156 1213.12C618.361 1219.32 622.062 1224.75 627.376 1228.13L627.895 1228.45L880.133 1379.88C884.803 1382.68 890.311 1383.73 895.675 1382.86L896.194 1382.77L1160.04 1333.49C1167.89 1332.03 1174.43 1326.59 1177.29 1319.13L1255.12 1116.36C1257.9 1109.14 1256.84 1101.02 1252.36 1094.75L1251.92 1094.14L1088.81 880.977C1085.5 876.651 1080.77 873.646 1075.46 872.485L1074.94 872.378L786.17 816.131C779.968 814.923 773.552 816.32 768.422 819.977L767.93 820.339L581.319 960.981Z" stroke="url(#paint40_linear_3205_12)" stroke-width="4"/>
<path opacity="0.608696" d="M571.677 946.39C564.669 951.148 560.862 959.356 561.713 967.739L561.81 968.551L593.319 1197.82C594.182 1204.1 597.591 1209.73 602.727 1213.4L603.23 1213.75L843.431 1376.03C847.97 1379.1 853.45 1380.44 858.882 1379.83L859.408 1379.76L1121.93 1344.04C1129.82 1342.97 1136.6 1337.88 1139.84 1330.6L1227.51 1133.69C1230.65 1126.64 1230.04 1118.5 1225.92 1112.01L1225.51 1111.39L1076.4 892.395C1073.31 887.867 1068.72 884.593 1063.45 883.152L1062.93 883.019L781.609 813.102C775.464 811.574 768.97 812.65 763.653 816.057L763.142 816.394L571.677 946.39Z" stroke="url(#paint41_linear_3205_12)" stroke-width="4"/>
<path opacity="0.623188" d="M562.684 932.69C555.492 937.071 551.287 945.017 551.673 953.386L551.725 954.198L570.311 1182.63C570.826 1188.95 573.931 1194.77 578.875 1198.73L579.359 1199.1L807.089 1371.4C811.483 1374.72 816.92 1376.35 822.407 1376.01L822.938 1375.97L1083.45 1353.53C1091.37 1352.85 1098.37 1348.13 1101.97 1341.06L1199.09 1150.46C1202.58 1143.6 1202.41 1135.47 1198.67 1128.79L1198.29 1128.14L1063.32 904.196C1060.47 899.477 1056.03 895.94 1050.81 894.221L1050.3 894.061L777.059 811.094C770.986 809.25 764.43 810.001 758.939 813.148L758.41 813.46L562.684 932.69Z" stroke="url(#paint42_linear_3205_12)" stroke-width="4"/>
<path opacity="0.637681" d="M554.282 919.906C546.927 923.904 542.344 931.568 542.266 939.898L542.274 940.706L548.115 1167.57C548.279 1173.93 551.068 1179.93 555.804 1184.15L556.268 1184.55L771.146 1366C775.381 1369.58 780.761 1371.5 786.292 1371.43L786.828 1371.41L1044.67 1361.96C1052.58 1361.67 1059.79 1357.33 1063.75 1350.47L1169.89 1166.63C1173.72 1159.99 1173.99 1151.89 1170.63 1145.03L1170.3 1144.37L1049.56 916.342C1046.97 911.443 1042.7 907.651 1037.54 905.654L1037.04 905.466L772.459 810.101C766.474 807.944 759.873 808.364 754.22 811.244L753.677 811.531L554.282 919.906Z" stroke="url(#paint43_linear_3205_12)" stroke-width="4"/>
<path opacity="0.652174" d="M546.412 908.061C538.914 911.67 533.97 919.035 533.436 927.298L533.398 928.1L526.712 1152.71C526.522 1159.08 528.987 1165.24 533.5 1169.72L533.942 1170.14L735.643 1359.88C739.706 1363.7 745.013 1365.91 750.575 1366.11L751.115 1366.13L1005.65 1369.31C1013.54 1369.41 1020.93 1365.46 1025.23 1358.84L1139.96 1182.17C1144.12 1175.76 1144.82 1167.72 1141.86 1160.71L1141.56 1160.03L1035.12 928.794C1032.79 923.727 1028.7 919.686 1023.62 917.414L1023.12 917.2L767.752 810.109C761.872 807.644 755.241 807.733 749.441 810.337L748.882 810.596L546.412 908.061Z" stroke="url(#paint44_linear_3205_12)" stroke-width="4"/>
<path opacity="0.666667" d="M539.012 897.174C531.393 900.391 526.107 907.438 525.123 915.608L525.041 916.403L506.082 1138.07C505.538 1144.44 507.668 1150.73 511.944 1155.46L512.364 1155.91L700.617 1353.06C704.492 1357.12 709.714 1359.61 715.294 1360.09L715.836 1360.13L966.462 1375.59C974.311 1376.07 981.862 1372.51 986.485 1366.15L1109.34 1197.05C1113.82 1190.89 1114.95 1182.92 1112.39 1175.78L1112.13 1175.09L1019.98 941.511C1017.92 936.29 1014.03 932.008 1009.04 929.463L1008.55 929.222L762.882 811.105C757.121 808.336 750.478 808.092 744.542 810.412L743.97 810.645L539.012 897.174Z" stroke="url(#paint45_linear_3205_12)" stroke-width="4"/>
<path opacity="0.681159" d="M532.019 887.259C524.301 890.08 518.693 896.795 517.267 904.848L517.142 905.631L486.204 1123.69C485.304 1130.04 487.091 1136.46 491.117 1141.42L491.514 1141.89L666.104 1345.57C669.779 1349.86 674.9 1352.64 680.485 1353.39L681.027 1353.46L927.162 1380.8C934.951 1381.66 942.644 1378.5 947.575 1372.41L1078.09 1211.24C1082.87 1205.34 1084.42 1197.47 1082.27 1190.23L1082.05 1189.53L1004.13 954.454C1002.36 949.093 998.672 944.579 993.79 941.764L993.313 941.498L757.79 813.069C752.165 810.002 745.525 809.424 739.468 811.455L738.884 811.659L532.019 887.259Z" stroke="url(#paint46_linear_3205_12)" stroke-width="4"/>
<path opacity="0.695652" d="M525.373 878.33C517.577 880.754 511.669 887.12 509.811 895.03L509.644 895.8L467.051 1109.62C465.796 1115.92 467.234 1122.45 470.996 1127.63L471.367 1128.12L632.136 1337.44C635.599 1341.95 640.605 1345.01 646.182 1346.05L646.723 1346.14L887.819 1384.94C895.528 1386.18 903.34 1383.42 908.565 1377.62L1046.25 1224.7C1051.31 1219.08 1053.28 1211.34 1051.54 1204.01L1051.36 1203.31L987.577 967.585C986.093 962.098 982.63 957.36 977.867 954.28L977.403 953.988L752.424 815.979C746.95 812.621 740.33 811.709 734.166 813.445L733.571 813.62L525.373 878.33Z" stroke="url(#paint47_linear_3205_12)" stroke-width="4"/>
<path opacity="0.710145" d="M519.013 870.392C511.159 872.417 504.972 878.422 502.692 886.166L502.484 886.921L448.599 1095.89C446.992 1102.12 448.073 1108.73 451.56 1114.12L451.904 1114.64L598.746 1328.72C601.983 1333.44 606.86 1336.78 612.416 1338.09L612.955 1338.21L848.496 1388.02C856.107 1389.63 864.016 1387.28 869.517 1381.78L1013.87 1237.42C1019.2 1232.1 1021.57 1224.51 1020.25 1217.12L1020.11 1216.4L970.307 980.863C969.123 975.264 965.896 970.314 961.266 966.972L960.814 966.654L746.73 819.812C741.422 816.171 734.839 814.926 728.582 816.36L727.978 816.507L519.013 870.392Z" stroke="url(#paint48_linear_3205_12)" stroke-width="4"/>
<path opacity="0.724638" d="M512.875 863.45C504.985 865.078 498.542 870.708 495.854 878.262L495.605 878.999L430.82 1082.52C428.863 1088.67 429.581 1095.35 432.78 1100.93L433.097 1101.47L565.964 1319.44C568.962 1324.36 573.694 1327.97 579.216 1329.56L579.753 1329.71L809.254 1390.05C816.75 1392.02 824.734 1390.09 830.493 1384.9L981 1249.38C986.58 1244.36 989.345 1236.94 988.442 1229.52L988.344 1228.8L952.32 994.249C951.445 988.554 948.467 983.402 943.983 979.804L943.545 979.461L740.659 824.539C735.53 820.623 729 819.047 722.666 820.176L722.053 820.294L512.875 863.45Z" stroke="url(#paint49_linear_3205_12)" stroke-width="4"/>
<path opacity="0.73913" d="M506.897 857.504C498.993 858.736 492.316 863.981 489.233 871.323L488.947 872.04L413.684 1069.56C411.381 1075.6 411.733 1082.33 414.634 1088.09L414.922 1088.65L533.813 1309.63C536.562 1314.74 541.137 1318.61 546.612 1320.49L547.145 1320.67L770.156 1391.06C777.517 1393.39 785.554 1391.86 791.553 1387L947.691 1260.56C953.503 1255.86 956.652 1248.63 956.169 1241.2L956.111 1240.48L933.62 1007.7C933.062 1001.93 930.343 996.586 926.02 992.738L925.596 992.37L734.16 830.131C729.225 825.949 722.765 824.044 716.367 824.864L715.748 824.952L506.897 857.504Z" stroke="url(#paint50_linear_3205_12)" stroke-width="4"/>
<path opacity="0.753623" d="M501.021 852.549C493.123 853.388 486.236 858.239 482.774 865.347L482.45 866.042L397.16 1057.03C394.516 1062.95 394.498 1069.7 397.09 1075.63L397.349 1076.2L502.322 1299.34C504.809 1304.63 509.212 1308.76 514.627 1310.92L515.154 1311.12L731.259 1391.06C738.47 1393.73 746.538 1392.62 752.758 1388.1L913.994 1270.95C920.02 1266.57 923.541 1259.56 923.474 1252.14L923.457 1251.42L914.208 1021.19C913.974 1015.35 911.527 1009.83 907.377 1005.74L906.97 1005.35L727.188 836.556C722.46 832.117 716.086 829.887 709.639 830.395L709.016 830.452L501.021 852.549Z" stroke="url(#paint51_linear_3205_12)" stroke-width="4"/>
<path opacity="0.768116" d="M495.185 848.58C487.314 849.03 480.241 853.477 476.416 860.331L476.057 861.002L381.218 1044.96C378.238 1050.73 377.848 1057.49 380.123 1063.56L380.351 1064.15L471.51 1288.61C473.725 1294.06 477.942 1298.45 483.285 1300.88L483.805 1301.11L692.623 1390.07C699.667 1393.08 707.743 1392.37 714.165 1388.2L879.961 1280.54C886.182 1276.5 890.06 1269.71 890.408 1262.33L890.431 1261.62L894.092 1034.67C894.187 1028.78 892.023 1023.09 888.058 1018.76L887.669 1018.35L719.697 843.776C715.189 839.091 708.917 836.539 702.437 836.733L701.809 836.761L495.185 848.58Z" stroke="url(#paint52_linear_3205_12)" stroke-width="4"/>
<path opacity="0.782609" d="M489.332 845.584C481.507 845.65 474.272 849.689 470.102 856.269L469.708 856.914L365.821 1033.37C362.514 1038.98 361.751 1045.73 363.699 1051.93L363.896 1052.53L441.398 1277.47C443.33 1283.08 447.348 1287.71 452.605 1290.42L453.118 1290.68L654.301 1388.13C661.163 1391.45 669.226 1391.16 675.829 1387.35L845.642 1289.31C852.039 1285.61 856.259 1279.08 857.018 1271.76L857.082 1271.05L873.277 1048.1C873.707 1042.18 871.836 1036.34 868.07 1031.78L867.699 1031.35L711.646 851.755C707.37 846.835 701.216 843.967 694.718 843.844L694.089 843.841L489.332 845.584Z" stroke="url(#paint53_linear_3205_12)" stroke-width="4"/>
<path opacity="0.797101" d="M483.404 843.548C475.645 843.237 468.272 846.86 463.775 853.149L463.349 853.766L350.939 1022.28C347.312 1027.72 346.175 1034.43 347.789 1040.74L347.954 1041.35L412.004 1265.98C413.642 1271.72 417.449 1276.6 422.606 1279.58L423.11 1279.86L616.35 1385.26C623.014 1388.89 631.042 1389 637.805 1385.56L811.089 1297.26C817.64 1293.93 822.188 1287.66 823.353 1280.43L823.456 1279.73L851.774 1061.45C852.543 1055.52 850.976 1049.54 847.42 1044.76L847.069 1044.3L702.994 860.452C698.963 855.309 692.942 852.131 686.442 851.692L685.811 851.658L483.404 843.548Z" stroke="url(#paint54_linear_3205_12)" stroke-width="4"/>
<path opacity="0.811594" d="M477.343 842.454C469.67 841.773 462.184 844.978 457.38 850.958L456.924 851.545L336.533 1011.73C332.597 1016.97 331.087 1023.62 332.36 1030.03L332.492 1030.65L383.342 1254.17C384.677 1260.04 388.258 1265.14 393.305 1268.4L393.798 1268.71L578.82 1381.48C585.272 1385.42 593.243 1385.93 600.146 1382.86L776.351 1304.41C783.038 1301.43 787.894 1295.45 789.459 1288.33L789.601 1287.64L829.593 1074.68C830.704 1068.76 829.451 1062.65 826.116 1057.66L825.787 1057.18L693.705 869.827C689.93 864.473 684.058 860.991 677.57 860.234L676.94 860.17L477.343 842.454Z" stroke="url(#paint55_linear_3205_12)" stroke-width="4"/>
<path opacity="0.826087" d="M471.098 842.281C463.529 841.238 455.954 844.024 450.864 849.679L450.378 850.235L322.57 1001.72C318.334 1006.74 316.454 1013.32 317.38 1019.8L317.479 1020.43L355.424 1242.09C356.447 1248.07 359.791 1253.4 364.713 1256.92L365.195 1257.25L541.759 1376.85C547.985 1381.07 555.88 1381.98 562.9 1379.28L741.48 1310.73C748.281 1308.12 753.43 1302.45 755.386 1295.46L755.565 1294.78L806.749 1087.75C808.205 1081.86 807.273 1075.64 804.172 1070.45L803.865 1069.95L683.745 879.835C680.237 874.282 674.528 870.502 668.068 869.43L667.441 869.335L471.098 842.281Z" stroke="url(#paint56_linear_3205_12)" stroke-width="4"/>
<path opacity="0.84058" d="M464.613 843.008C457.166 841.612 449.527 843.975 444.173 849.292L443.662 849.815L309.013 992.27C304.489 997.056 302.241 1003.54 302.816 1010.08L302.88 1010.72L328.259 1229.78C328.963 1235.86 332.056 1241.4 336.842 1245.18L337.312 1245.54L505.214 1371.4C511.202 1375.89 519 1377.18 526.117 1374.87L706.524 1316.25C713.419 1314.01 718.84 1308.66 721.178 1301.82L721.395 1301.16L783.253 1100.64C785.056 1094.8 784.455 1088.48 781.598 1083.09L781.315 1082.58L673.083 890.43C669.851 884.693 664.32 880.624 657.904 879.237L657.279 879.111L464.613 843.008Z" stroke="url(#paint57_linear_3205_12)" stroke-width="4"/>
<path opacity="0.855072" d="M457.84 844.604C450.532 842.866 442.853 844.809 437.257 849.773L436.721 850.262L295.824 983.397C291.025 987.931 288.413 994.302 288.633 1000.88L288.663 1001.52L301.855 1217.29C302.231 1223.45 305.064 1229.19 309.701 1233.23L310.155 1233.61L469.229 1365.16C474.967 1369.91 482.647 1371.58 489.839 1369.65L671.533 1320.97C678.501 1319.1 684.175 1314.08 686.884 1307.42L687.136 1306.77L759.125 1113.31C761.276 1107.53 761.013 1101.14 758.412 1095.57L758.153 1095.03L661.69 901.566C658.744 895.657 653.405 891.309 647.046 889.609L646.427 889.453L457.84 844.604Z" stroke="url(#paint58_linear_3205_12)" stroke-width="4"/>
<path opacity="0.869565" d="M450.728 847.043C443.577 844.974 435.883 846.497 430.067 851.098L429.511 851.553L282.967 975.111C277.906 979.378 274.937 985.611 274.798 992.209L274.793 992.849L276.216 1204.67C276.258 1210.89 278.817 1216.81 283.293 1221.11L283.732 1221.52L433.844 1358.18C439.322 1363.17 446.865 1365.21 454.11 1363.67L636.554 1324.89C643.573 1323.4 649.479 1318.72 652.547 1312.27L652.835 1311.64L734.383 1125.73C736.881 1120.03 736.963 1113.58 734.628 1107.83L734.394 1107.28L649.54 913.194C646.888 907.128 641.756 902.509 635.469 900.499L634.858 900.314L450.728 847.043Z" stroke="url(#paint59_linear_3205_12)" stroke-width="4"/>
<path opacity="0.884058" d="M443.234 850.29C436.255 847.902 428.568 849.01 422.558 853.237L421.981 853.656L270.405 967.419C265.096 971.403 261.776 977.48 261.276 984.078L261.236 984.718L251.345 1191.94C251.046 1198.21 253.319 1204.32 257.623 1208.86L258.046 1209.3L399.099 1350.51C404.305 1355.72 411.694 1358.13 418.97 1356.98L601.632 1328.04C608.682 1326.93 614.799 1322.61 618.212 1316.37L618.534 1315.76L709.045 1137.86C711.89 1132.27 712.323 1125.77 710.263 1119.86L710.055 1119.29L636.612 925.264C634.262 919.057 629.35 914.177 623.151 911.861L622.547 911.645L443.234 850.29Z" stroke="url(#paint60_linear_3205_12)" stroke-width="4"/>
<path opacity="0.898551" d="M435.312 854.313C428.519 851.618 420.865 852.316 414.684 856.161L414.091 856.543L258.099 960.331C252.558 964.018 248.895 969.917 248.034 976.495L247.959 977.134L227.241 1179.17C226.595 1185.47 228.573 1191.75 232.692 1196.53L233.098 1196.99L365.028 1342.19C369.954 1347.62 377.169 1350.37 384.454 1349.6L566.813 1330.43C573.871 1329.69 580.178 1325.74 583.921 1319.74L584.275 1319.15L683.132 1149.69C686.322 1144.22 687.113 1137.69 685.338 1131.63L685.158 1131.05L622.886 937.727C620.845 931.393 616.164 926.264 610.068 923.646L609.474 923.4L435.312 854.313Z" stroke="url(#paint61_linear_3205_12)" stroke-width="4"/>
<path opacity="0.913043" d="M426.922 859.072C420.331 856.084 412.731 856.379 406.404 859.835L405.795 860.179L246.011 953.85C240.255 957.225 236.257 962.927 235.035 969.466L234.926 970.101L203.899 1166.4C202.902 1172.71 204.574 1179.14 208.498 1184.16L208.884 1184.64L331.66 1333.27C336.299 1338.89 343.324 1341.98 350.597 1341.6L532.139 1332.08C539.186 1331.71 545.659 1328.13 549.717 1322.39L550.103 1321.83L656.67 1161.17C660.2 1155.85 661.353 1149.3 659.872 1143.11L659.721 1142.51L608.345 950.531C606.62 944.085 602.184 938.717 596.205 935.803L595.622 935.528L426.922 859.072Z" stroke="url(#paint62_linear_3205_12)" stroke-width="4"/>
<path opacity="0.927536" d="M418.025 864.53C411.648 861.265 404.126 861.162 397.677 864.224L397.056 864.53L234.108 947.98C228.153 951.029 223.83 956.515 222.248 962.994L222.103 963.624L181.315 1153.66C179.962 1159.97 181.32 1166.54 185.036 1171.79L185.403 1172.29L299.027 1323.81C303.371 1329.6 310.189 1333.01 317.428 1333.01L497.653 1333.01C504.667 1333.01 511.284 1329.81 515.639 1324.34L516.054 1323.81L629.678 1172.29C633.547 1167.13 635.067 1160.59 633.888 1154.27L633.766 1153.66L592.978 963.624C591.574 957.082 587.393 951.488 581.545 948.282L580.973 947.98L418.025 864.53Z" stroke="url(#paint63_linear_3205_12)" stroke-width="4"/>
<path opacity="0.942029" d="M408.585 870.646C402.435 867.116 395.013 866.628 388.468 869.291L387.838 869.559L222.349 942.718C216.213 945.431 211.578 950.682 209.638 957.082L209.459 957.705L159.482 1141.01C157.769 1147.29 158.801 1153.99 162.299 1159.46L162.646 1159.98L267.153 1313.84C271.196 1319.79 277.79 1323.51 284.975 1323.89L463.394 1333.24C470.355 1333.6 477.091 1330.79 481.726 1325.62L482.169 1325.11L602.186 1183.02C606.386 1178.04 608.277 1171.53 607.409 1165.1L607.316 1164.48L576.773 976.955C575.695 970.334 571.782 964.524 566.078 961.034L565.521 960.703L408.585 870.646Z" stroke="url(#paint64_linear_3205_12)" stroke-width="4"/>
<path opacity="0.956522" d="M398.571 877.376C392.659 873.599 385.358 872.733 378.743 874.996L378.105 875.225L210.7 938.066C204.402 940.43 199.465 945.427 197.171 951.727L196.957 952.341L138.388 1128.48C136.314 1134.72 137.011 1141.53 140.281 1147.21L140.606 1147.76L236.06 1303.43C239.796 1309.52 246.154 1313.53 253.263 1314.28L429.4 1332.79C436.287 1333.52 443.12 1331.1 448.016 1326.24L448.483 1325.76L574.217 1193.33C578.744 1188.56 581.007 1182.1 580.457 1175.57L580.395 1174.93L559.727 990.47C558.978 983.785 555.342 977.774 549.795 974.006L549.253 973.649L398.571 877.376Z" stroke="url(#paint65_linear_3205_12)" stroke-width="4"/>
<path opacity="0.971014" d="M387.952 884.677C382.288 880.668 375.129 879.436 368.469 881.299L367.826 881.488L199.124 934.016C192.685 936.021 187.461 940.747 184.816 946.928L184.568 947.531L118.022 1116.11C115.584 1122.29 115.937 1129.21 118.969 1135.09L119.271 1135.66L205.765 1292.63C209.192 1298.85 215.298 1303.13 222.311 1304.24L395.706 1331.71C402.5 1332.78 409.406 1330.76 414.541 1326.22L415.032 1325.77L545.8 1203.21C550.644 1198.67 553.283 1192.27 553.058 1185.65L553.027 1185.01L541.832 1004.12C541.415 997.384 538.066 991.186 532.691 987.148L532.164 986.764L387.952 884.677Z" stroke="url(#paint66_linear_3205_12)" stroke-width="4"/>
<path opacity="0.985507" d="M376.702 892.501C371.296 888.276 364.297 886.693 357.618 888.157L356.973 888.307L187.587 930.564C181.026 932.201 175.529 936.639 172.54 942.681L172.258 943.271L98.3662 1103.95C95.5631 1110.05 95.5659 1117.05 98.3495 1123.13L98.6274 1123.72L176.284 1281.49C179.398 1287.81 185.242 1292.36 192.138 1293.83L362.346 1330.01C369.027 1331.43 375.981 1329.8 381.335 1325.6L381.848 1325.18L516.961 1212.64C522.116 1208.34 525.132 1202.02 525.239 1195.33L525.24 1194.69L523.092 1017.84C523.009 1011.08 519.956 1004.71 514.765 1000.41L514.256 1000L376.702 892.501Z" stroke="url(#paint67_linear_3205_12)" stroke-width="4"/>
<path d="M364.798 900.803C359.658 896.38 352.838 894.458 346.164 895.525L345.519 895.637L176.055 927.701C169.392 928.962 163.637 933.095 160.311 938.978L159.996 939.553L79.4061 1092.04C76.2377 1098.03 75.8809 1105.11 78.4063 1111.38L78.6601 1111.98L147.629 1270.06C150.428 1276.48 155.997 1281.27 162.758 1283.08L329.351 1327.72C335.901 1329.47 342.88 1328.25 348.43 1324.39L348.962 1324.01L487.732 1221.59C493.187 1217.57 496.579 1211.34 497.024 1204.6L497.058 1203.95L503.507 1031.6C503.76 1024.82 501.011 1018.29 496.016 1013.74L495.525 1013.3L364.798 900.803Z" stroke="url(#paint68_linear_3205_12)" stroke-width="4"/>
<defs>
<linearGradient id="paint0_linear_3205_12" x1="1871.91" y1="1645.24" x2="1688.03" y2="484.222" gradientUnits="userSpaceOnUse">
<stop stop-color="#FF1CF7"/>
<stop offset="1" stop-color="#00F0FF"/>
</linearGradient>
<linearGradient id="paint1_linear_3205_12" x1="1820.15" y1="1644.5" x2="1698.36" y2="485.766" gradientUnits="userSpaceOnUse">
<stop stop-color="#FF1CF7"/>
<stop offset="1" stop-color="#00F0FF"/>
</linearGradient>
<linearGradient id="paint2_linear_3205_12" x1="1768.74" y1="1642.17" x2="1708.31" y2="489.015" gradientUnits="userSpaceOnUse">
<stop stop-color="#FF1CF7"/>
<stop offset="1" stop-color="#00F0FF"/>
</linearGradient>
<linearGradient id="paint3_linear_3205_12" x1="1717.78" y1="1638.29" x2="1717.78" y2="493.93" gradientUnits="userSpaceOnUse">
<stop stop-color="#FF1CF7"/>
<stop offset="1" stop-color="#00F0FF"/>
</linearGradient>
<linearGradient id="paint4_linear_3205_12" x1="1667.34" y1="1632.9" x2="1726.69" y2="500.471" gradientUnits="userSpaceOnUse">
<stop stop-color="#FF1CF7"/>
<stop offset="1" stop-color="#00F0FF"/>
</linearGradient>
<linearGradient id="paint5_linear_3205_12" x1="1617.51" y1="1626.05" x2="1734.95" y2="508.59" gradientUnits="userSpaceOnUse">
<stop stop-color="#FF1CF7"/>
<stop offset="1" stop-color="#00F0FF"/>
</linearGradient>
<linearGradient id="paint6_linear_3205_12" x1="1568.34" y1="1617.77" x2="1742.49" y2="518.237" gradientUnits="userSpaceOnUse">
<stop stop-color="#FF1CF7"/>
<stop offset="1" stop-color="#00F0FF"/>
</linearGradient>
<linearGradient id="paint7_linear_3205_12" x1="1519.93" y1="1608.12" x2="1749.23" y2="529.358" gradientUnits="userSpaceOnUse">
<stop stop-color="#FF1CF7"/>
<stop offset="1" stop-color="#00F0FF"/>
</linearGradient>
<linearGradient id="paint8_linear_3205_12" x1="1472.33" y1="1597.15" x2="1755.08" y2="541.893" gradientUnits="userSpaceOnUse">
<stop stop-color="#FF1CF7"/>
<stop offset="1" stop-color="#00F0FF"/>
</linearGradient>
<linearGradient id="paint9_linear_3205_12" x1="1425.61" y1="1584.93" x2="1760" y2="555.781" gradientUnits="userSpaceOnUse">
<stop stop-color="#FF1CF7"/>
<stop offset="1" stop-color="#00F0FF"/>
</linearGradient>
<linearGradient id="paint10_linear_3205_12" x1="1379.82" y1="1571.51" x2="1763.9" y2="570.957" gradientUnits="userSpaceOnUse">
<stop stop-color="#FF1CF7"/>
<stop offset="1" stop-color="#00F0FF"/>
</linearGradient>
<linearGradient id="paint11_linear_3205_12" x1="1335.04" y1="1556.95" x2="1766.73" y2="587.351" gradientUnits="userSpaceOnUse">
<stop stop-color="#FF1CF7"/>
<stop offset="1" stop-color="#00F0FF"/>
</linearGradient>
<linearGradient id="paint12_linear_3205_12" x1="1291.3" y1="1541.33" x2="1768.44" y2="604.894" gradientUnits="userSpaceOnUse">
<stop stop-color="#FF1CF7"/>
<stop offset="1" stop-color="#00F0FF"/>
</linearGradient>
<linearGradient id="paint13_linear_3205_12" x1="1248.66" y1="1524.71" x2="1768.96" y2="623.511" gradientUnits="userSpaceOnUse">
<stop stop-color="#FF1CF7"/>
<stop offset="1" stop-color="#00F0FF"/>
</linearGradient>
<linearGradient id="paint14_linear_3205_12" x1="1207.16" y1="1507.16" x2="1768.27" y2="643.127" gradientUnits="userSpaceOnUse">
<stop stop-color="#FF1CF7"/>
<stop offset="1" stop-color="#00F0FF"/>
</linearGradient>
<linearGradient id="paint15_linear_3205_12" x1="1166.84" y1="1488.75" x2="1766.3" y2="663.663" gradientUnits="userSpaceOnUse">
<stop stop-color="#FF1CF7"/>
<stop offset="1" stop-color="#00F0FF"/>
</linearGradient>
<linearGradient id="paint16_linear_3205_12" x1="1127.73" y1="1469.56" x2="1763.02" y2="685.04" gradientUnits="userSpaceOnUse">
<stop stop-color="#FF1CF7"/>
<stop offset="1" stop-color="#00F0FF"/>
</linearGradient>
<linearGradient id="paint17_linear_3205_12" x1="1089.87" y1="1449.66" x2="1758.41" y2="707.177" gradientUnits="userSpaceOnUse">
<stop stop-color="#FF1CF7"/>
<stop offset="1" stop-color="#00F0FF"/>
</linearGradient>
<linearGradient id="paint18_linear_3205_12" x1="1053.29" y1="1429.13" x2="1752.43" y2="729.992" gradientUnits="userSpaceOnUse">
<stop stop-color="#FF1CF7"/>
<stop offset="1" stop-color="#00F0FF"/>
</linearGradient>
<linearGradient id="paint19_linear_3205_12" x1="1017.99" y1="1408.05" x2="1745.06" y2="753.401" gradientUnits="userSpaceOnUse">
<stop stop-color="#FF1CF7"/>
<stop offset="1" stop-color="#00F0FF"/>
</linearGradient>
<linearGradient id="paint20_linear_3205_12" x1="984.009" y1="1386.5" x2="1736.28" y2="777.323" gradientUnits="userSpaceOnUse">
<stop stop-color="#FF1CF7"/>
<stop offset="1" stop-color="#00F0FF"/>
</linearGradient>
<linearGradient id="paint21_linear_3205_12" x1="951.348" y1="1364.54" x2="1726.07" y2="801.672" gradientUnits="userSpaceOnUse">
<stop stop-color="#FF1CF7"/>
<stop offset="1" stop-color="#00F0FF"/>
</linearGradient>
<linearGradient id="paint22_linear_3205_12" x1="920.019" y1="1342.27" x2="1714.44" y2="826.365" gradientUnits="userSpaceOnUse">
<stop stop-color="#FF1CF7"/>
<stop offset="1" stop-color="#00F0FF"/>
</linearGradient>
<linearGradient id="paint23_linear_3205_12" x1="890.025" y1="1319.75" x2="1701.37" y2="851.319" gradientUnits="userSpaceOnUse">
<stop stop-color="#FF1CF7"/>
<stop offset="1" stop-color="#00F0FF"/>
</linearGradient>
<linearGradient id="paint24_linear_3205_12" x1="861.363" y1="1297.07" x2="1686.87" y2="876.451" gradientUnits="userSpaceOnUse">
<stop stop-color="#FF1CF7"/>
<stop offset="1" stop-color="#00F0FF"/>
</linearGradient>
<linearGradient id="paint25_linear_3205_12" x1="834.03" y1="1274.29" x2="1670.94" y2="901.679" gradientUnits="userSpaceOnUse">
<stop stop-color="#FF1CF7"/>
<stop offset="1" stop-color="#00F0FF"/>
</linearGradient>
<linearGradient id="paint26_linear_3205_12" x1="808.015" y1="1251.51" x2="1653.59" y2="926.921" gradientUnits="userSpaceOnUse">
<stop stop-color="#FF1CF7"/>
<stop offset="1" stop-color="#00F0FF"/>
</linearGradient>
<linearGradient id="paint27_linear_3205_12" x1="783.305" y1="1228.78" x2="1634.84" y2="952.1" gradientUnits="userSpaceOnUse">
<stop stop-color="#FF1CF7"/>
<stop offset="1" stop-color="#00F0FF"/>
</linearGradient>
<linearGradient id="paint28_linear_3205_12" x1="759.881" y1="1206.19" x2="1614.71" y2="977.137" gradientUnits="userSpaceOnUse">
<stop stop-color="#FF1CF7"/>
<stop offset="1" stop-color="#00F0FF"/>
</linearGradient>
<linearGradient id="paint29_linear_3205_12" x1="737.722" y1="1183.8" x2="1593.22" y2="1001.95" gradientUnits="userSpaceOnUse">
<stop stop-color="#FF1CF7"/>
<stop offset="1" stop-color="#00F0FF"/>
</linearGradient>
<linearGradient id="paint30_linear_3205_12" x1="716.801" y1="1161.68" x2="1570.4" y2="1026.48" gradientUnits="userSpaceOnUse">
<stop stop-color="#FF1CF7"/>
<stop offset="1" stop-color="#00F0FF"/>
</linearGradient>
<linearGradient id="paint31_linear_3205_12" x1="697.09" y1="1139.9" x2="1546.28" y2="1050.64" gradientUnits="userSpaceOnUse">
<stop stop-color="#FF1CF7"/>
<stop offset="1" stop-color="#00F0FF"/>
</linearGradient>
<linearGradient id="paint32_linear_3205_12" x1="678.556" y1="1118.52" x2="1520.89" y2="1074.37" gradientUnits="userSpaceOnUse">
<stop stop-color="#FF1CF7"/>
<stop offset="1" stop-color="#00F0FF"/>
</linearGradient>
<linearGradient id="paint33_linear_3205_12" x1="661.161" y1="1097.6" x2="1494.27" y2="1097.6" gradientUnits="userSpaceOnUse">
<stop stop-color="#FF1CF7"/>
<stop offset="1" stop-color="#00F0FF"/>
</linearGradient>
<linearGradient id="paint34_linear_3205_12" x1="644.867" y1="1077.21" x2="1466.48" y2="1120.27" gradientUnits="userSpaceOnUse">
<stop stop-color="#FF1CF7"/>
<stop offset="1" stop-color="#00F0FF"/>
</linearGradient>
<linearGradient id="paint35_linear_3205_12" x1="629.631" y1="1057.4" x2="1437.54" y2="1142.32" gradientUnits="userSpaceOnUse">
<stop stop-color="#FF1CF7"/>
<stop offset="1" stop-color="#00F0FF"/>
</linearGradient>
<linearGradient id="paint36_linear_3205_12" x1="615.408" y1="1038.22" x2="1407.52" y2="1163.68" gradientUnits="userSpaceOnUse">
<stop stop-color="#FF1CF7"/>
<stop offset="1" stop-color="#00F0FF"/>
</linearGradient>
<linearGradient id="paint37_linear_3205_12" x1="602.149" y1="1019.73" x2="1376.46" y2="1184.31" gradientUnits="userSpaceOnUse">
<stop stop-color="#FF1CF7"/>
<stop offset="1" stop-color="#00F0FF"/>
</linearGradient>
<linearGradient id="paint38_linear_3205_12" x1="589.804" y1="1001.96" x2="1344.42" y2="1204.16" gradientUnits="userSpaceOnUse">
<stop stop-color="#FF1CF7"/>
<stop offset="1" stop-color="#00F0FF"/>
</linearGradient>
<linearGradient id="paint39_linear_3205_12" x1="578.32" y1="984.966" x2="1311.45" y2="1223.18" gradientUnits="userSpaceOnUse">
<stop stop-color="#FF1CF7"/>
<stop offset="1" stop-color="#00F0FF"/>
</linearGradient>
<linearGradient id="paint40_linear_3205_12" x1="567.643" y1="968.784" x2="1277.62" y2="1241.32" gradientUnits="userSpaceOnUse">
<stop stop-color="#FF1CF7"/>
<stop offset="1" stop-color="#00F0FF"/>
</linearGradient>
<linearGradient id="paint41_linear_3205_12" x1="557.716" y1="953.451" x2="1242.98" y2="1258.55" gradientUnits="userSpaceOnUse">
<stop stop-color="#FF1CF7"/>
<stop offset="1" stop-color="#00F0FF"/>
</linearGradient>
<linearGradient id="paint42_linear_3205_12" x1="548.481" y1="938.999" x2="1207.59" y2="1274.83" gradientUnits="userSpaceOnUse">
<stop stop-color="#FF1CF7"/>
<stop offset="1" stop-color="#00F0FF"/>
</linearGradient>
<linearGradient id="paint43_linear_3205_12" x1="539.88" y1="925.457" x2="1171.53" y2="1290.14" gradientUnits="userSpaceOnUse">
<stop stop-color="#FF1CF7"/>
<stop offset="1" stop-color="#00F0FF"/>
</linearGradient>
<linearGradient id="paint44_linear_3205_12" x1="531.851" y1="912.85" x2="1134.84" y2="1304.44" gradientUnits="userSpaceOnUse">
<stop stop-color="#FF1CF7"/>
<stop offset="1" stop-color="#00F0FF"/>
</linearGradient>
<linearGradient id="paint45_linear_3205_12" x1="524.334" y1="901.199" x2="1097.61" y2="1317.71" gradientUnits="userSpaceOnUse">
<stop stop-color="#FF1CF7"/>
<stop offset="1" stop-color="#00F0FF"/>
</linearGradient>
<linearGradient id="paint46_linear_3205_12" x1="517.266" y1="890.522" x2="1059.9" y2="1329.94" gradientUnits="userSpaceOnUse">
<stop stop-color="#FF1CF7"/>
<stop offset="1" stop-color="#00F0FF"/>
</linearGradient>
<linearGradient id="paint47_linear_3205_12" x1="510.586" y1="880.832" x2="1021.77" y2="1341.1" gradientUnits="userSpaceOnUse">
<stop stop-color="#FF1CF7"/>
<stop offset="1" stop-color="#00F0FF"/>
</linearGradient>
<linearGradient id="paint48_linear_3205_12" x1="504.231" y1="872.139" x2="983.287" y2="1351.19" gradientUnits="userSpaceOnUse">
<stop stop-color="#FF1CF7"/>
<stop offset="1" stop-color="#00F0FF"/>
</linearGradient>
<linearGradient id="paint49_linear_3205_12" x1="498.138" y1="864.448" x2="944.524" y2="1360.21" gradientUnits="userSpaceOnUse">
<stop stop-color="#FF1CF7"/>
<stop offset="1" stop-color="#00F0FF"/>
</linearGradient>
<linearGradient id="paint50_linear_3205_12" x1="492.246" y1="857.763" x2="905.545" y2="1368.14" gradientUnits="userSpaceOnUse">
<stop stop-color="#FF1CF7"/>
<stop offset="1" stop-color="#00F0FF"/>
</linearGradient>
<linearGradient id="paint51_linear_3205_12" x1="486.494" y1="852.081" x2="866.416" y2="1375" gradientUnits="userSpaceOnUse">
<stop stop-color="#FF1CF7"/>
<stop offset="1" stop-color="#00F0FF"/>
</linearGradient>
<linearGradient id="paint52_linear_3205_12" x1="480.82" y1="847.398" x2="827.203" y2="1380.78" gradientUnits="userSpaceOnUse">
<stop stop-color="#FF1CF7"/>
<stop offset="1" stop-color="#00F0FF"/>
</linearGradient>
<linearGradient id="paint53_linear_3205_12" x1="475.164" y1="843.704" x2="787.97" y2="1385.5" gradientUnits="userSpaceOnUse">
<stop stop-color="#FF1CF7"/>
<stop offset="1" stop-color="#00F0FF"/>
</linearGradient>
<linearGradient id="paint54_linear_3205_12" x1="469.469" y1="840.988" x2="748.781" y2="1389.17" gradientUnits="userSpaceOnUse">
<stop stop-color="#FF1CF7"/>
<stop offset="1" stop-color="#00F0FF"/>
</linearGradient>
<linearGradient id="paint55_linear_3205_12" x1="463.676" y1="839.233" x2="709.696" y2="1391.8" gradientUnits="userSpaceOnUse">
<stop stop-color="#FF1CF7"/>
<stop offset="1" stop-color="#00F0FF"/>
</linearGradient>
<linearGradient id="paint56_linear_3205_12" x1="457.73" y1="838.421" x2="670.775" y2="1393.42" gradientUnits="userSpaceOnUse">
<stop stop-color="#FF1CF7"/>
<stop offset="1" stop-color="#00F0FF"/>
</linearGradient>
<linearGradient id="paint57_linear_3205_12" x1="451.577" y1="838.53" x2="632.077" y2="1394.05" gradientUnits="userSpaceOnUse">
<stop stop-color="#FF1CF7"/>
<stop offset="1" stop-color="#00F0FF"/>
</linearGradient>
<linearGradient id="paint58_linear_3205_12" x1="445.164" y1="839.534" x2="593.658" y2="1393.72" gradientUnits="userSpaceOnUse">
<stop stop-color="#FF1CF7"/>
<stop offset="1" stop-color="#00F0FF"/>
</linearGradient>
<linearGradient id="paint59_linear_3205_12" x1="438.442" y1="841.406" x2="555.572" y2="1392.46" gradientUnits="userSpaceOnUse">
<stop stop-color="#FF1CF7"/>
<stop offset="1" stop-color="#00F0FF"/>
</linearGradient>
<linearGradient id="paint60_linear_3205_12" x1="431.363" y1="844.114" x2="517.869" y2="1390.29" gradientUnits="userSpaceOnUse">
<stop stop-color="#FF1CF7"/>
<stop offset="1" stop-color="#00F0FF"/>
</linearGradient>
<linearGradient id="paint61_linear_3205_12" x1="423.881" y1="847.626" x2="480.6" y2="1387.27" gradientUnits="userSpaceOnUse">
<stop stop-color="#FF1CF7"/>
<stop offset="1" stop-color="#00F0FF"/>
</linearGradient>
<linearGradient id="paint62_linear_3205_12" x1="415.954" y1="851.905" x2="443.809" y2="1383.41" gradientUnits="userSpaceOnUse">
<stop stop-color="#FF1CF7"/>
<stop offset="1" stop-color="#00F0FF"/>
</linearGradient>
<linearGradient id="paint63_linear_3205_12" x1="407.541" y1="856.914" x2="407.541" y2="1378.78" gradientUnits="userSpaceOnUse">
<stop stop-color="#FF1CF7"/>
<stop offset="1" stop-color="#00F0FF"/>
</linearGradient>
<linearGradient id="paint64_linear_3205_12" x1="398.604" y1="862.612" x2="371.835" y2="1373.4" gradientUnits="userSpaceOnUse">
<stop stop-color="#FF1CF7"/>
<stop offset="1" stop-color="#00F0FF"/>
</linearGradient>
<linearGradient id="paint65_linear_3205_12" x1="389.11" y1="868.958" x2="336.729" y2="1367.33" gradientUnits="userSpaceOnUse">
<stop stop-color="#FF1CF7"/>
<stop offset="1" stop-color="#00F0FF"/>
</linearGradient>
<linearGradient id="paint66_linear_3205_12" x1="379.025" y1="875.907" x2="302.257" y2="1360.6" gradientUnits="userSpaceOnUse">
<stop stop-color="#FF1CF7"/>
<stop offset="1" stop-color="#00F0FF"/>
</linearGradient>
<linearGradient id="paint67_linear_3205_12" x1="368.323" y1="883.415" x2="268.45" y2="1353.28" gradientUnits="userSpaceOnUse">
<stop stop-color="#FF1CF7"/>
<stop offset="1" stop-color="#00F0FF"/>
</linearGradient>
<linearGradient id="paint68_linear_3205_12" x1="356.976" y1="891.434" x2="235.335" y2="1345.41" gradientUnits="userSpaceOnUse">
<stop stop-color="#FF1CF7"/>
<stop offset="1" stop-color="#00F0FF"/>
</linearGradient>
</defs>
</svg>
