<svg width="47" height="49" viewBox="0 0 47 49" fill="none" xmlns="http://www.w3.org/2000/svg"><path d="M23.2031 4.04762C20.6639 4.04762 18.1495 4.5711 15.8036 5.58816C13.4576 6.60522 11.3261 8.09594 9.53055 9.97522C5.90436 13.7706 3.86719 18.9182 3.86719 24.2857C3.86719 33.231 9.4166 40.8202 17.093 43.5119C18.0598 43.6738 18.3691 43.0464 18.3691 42.5V39.0798C13.0131 40.2941 11.8723 36.3679 11.8723 36.3679C10.9828 34.0202 9.72598 33.3929 9.72598 33.3929C7.96641 32.1381 9.86133 32.1786 9.86133 32.1786C11.7949 32.3202 12.8197 34.2631 12.8197 34.2631C14.502 37.3393 17.3443 36.4286 18.4465 35.9429C18.6205 34.6274 19.1232 33.7369 19.6646 33.231C15.3721 32.725 10.8668 30.9845 10.8668 23.2738C10.8668 21.0274 11.6016 19.2262 12.8584 17.7893C12.665 17.2833 11.9883 15.1786 13.0518 12.4464C13.0518 12.4464 14.676 11.9 18.3691 14.5107C19.8967 14.0655 21.5596 13.8429 23.2031 13.8429C24.8467 13.8429 26.5096 14.0655 28.0371 14.5107C31.7303 11.9 33.3545 12.4464 33.3545 12.4464C34.418 15.1786 33.7412 17.2833 33.5479 17.7893C34.8047 19.2262 35.5395 21.0274 35.5395 23.2738C35.5395 31.0048 31.0148 32.7048 26.7029 33.2107C27.399 33.8381 28.0371 35.0726 28.0371 36.9548V42.5C28.0371 43.0464 28.3465 43.6941 29.3326 43.5119C37.009 40.8 42.5391 33.231 42.5391 24.2857C42.5391 21.628 42.0389 18.9963 41.0672 16.5409C40.0955 14.0855 38.6712 11.8545 36.8757 9.97522C35.0802 8.09594 32.9486 6.60522 30.6027 5.58816C28.2567 4.5711 25.7424 4.04762 23.2031 4.04762Z" fill="white"/></svg>